<mxfile host="app.diagrams.net" modified="2022-09-01T09:58:27.066Z" agent="5.0 (Windows NT 10.0; Win64; x64) AppleWebKit/537.36 (KHTML, like Gecko) Chrome/103.0.5060.134 Safari/537.36 OPR/89.0.4447.104" etag="BsshbX2GrUxT9fJCttb_" version="20.2.7" type="github">
  <diagram id="C5RBs43oDa-KdzZeNtuy" name="Page-1">
    <mxGraphModel dx="1029" dy="532" grid="1" gridSize="10" guides="1" tooltips="1" connect="1" arrows="1" fold="1" page="1" pageScale="1" pageWidth="827" pageHeight="1169" math="0" shadow="0">
      <root>
        <mxCell id="WIyWlLk6GJQsqaUBKTNV-0" />
        <mxCell id="WIyWlLk6GJQsqaUBKTNV-1" parent="WIyWlLk6GJQsqaUBKTNV-0" />
        <mxCell id="WIyWlLk6GJQsqaUBKTNV-2" value="" style="rounded=0;html=1;jettySize=auto;orthogonalLoop=1;fontSize=11;endArrow=block;endFill=0;endSize=8;strokeWidth=1;shadow=0;labelBackgroundColor=none;edgeStyle=orthogonalEdgeStyle;exitX=0.5;exitY=1;exitDx=0;exitDy=0;entryX=0.5;entryY=0;entryDx=0;entryDy=0;" parent="WIyWlLk6GJQsqaUBKTNV-1" source="1BZSETJdIj5R0xjEfyC4-16" target="WIyWlLk6GJQsqaUBKTNV-6" edge="1">
          <mxGeometry relative="1" as="geometry">
            <mxPoint x="512" y="310" as="sourcePoint" />
            <mxPoint x="489" y="280" as="targetPoint" />
          </mxGeometry>
        </mxCell>
        <mxCell id="WIyWlLk6GJQsqaUBKTNV-4" value="Oui" style="rounded=0;html=1;jettySize=auto;orthogonalLoop=1;fontSize=11;endArrow=classic;endFill=1;endSize=8;strokeWidth=1;shadow=0;labelBackgroundColor=none;edgeStyle=orthogonalEdgeStyle;entryX=0.5;entryY=0;entryDx=0;entryDy=0;" parent="WIyWlLk6GJQsqaUBKTNV-1" source="WIyWlLk6GJQsqaUBKTNV-6" target="xqbwnd2MoyKOv1-UZQDI-1" edge="1">
          <mxGeometry x="-0.5688" y="-20" relative="1" as="geometry">
            <mxPoint as="offset" />
          </mxGeometry>
        </mxCell>
        <mxCell id="xqbwnd2MoyKOv1-UZQDI-0" value="Non" style="edgeStyle=orthogonalEdgeStyle;rounded=0;orthogonalLoop=1;jettySize=auto;html=1;entryX=0.5;entryY=0;entryDx=0;entryDy=0;exitX=0.5;exitY=1;exitDx=0;exitDy=0;" edge="1" parent="WIyWlLk6GJQsqaUBKTNV-1" source="WIyWlLk6GJQsqaUBKTNV-6" target="1BZSETJdIj5R0xjEfyC4-0">
          <mxGeometry x="0.1429" y="28" relative="1" as="geometry">
            <mxPoint x="730" y="330" as="sourcePoint" />
            <mxPoint x="689" y="320" as="targetPoint" />
            <mxPoint as="offset" />
          </mxGeometry>
        </mxCell>
        <mxCell id="WIyWlLk6GJQsqaUBKTNV-6" value="Il y a&lt;br&gt;3 caractères&lt;br&gt;ou plus ?" style="rhombus;whiteSpace=wrap;html=1;shadow=0;fontFamily=Helvetica;fontSize=12;align=center;strokeWidth=1;spacing=6;spacingTop=-4;fillColor=#d5e8d4;strokeColor=#82b366;" parent="WIyWlLk6GJQsqaUBKTNV-1" vertex="1">
          <mxGeometry x="646.5" y="170" width="125" height="100" as="geometry" />
        </mxCell>
        <mxCell id="WIyWlLk6GJQsqaUBKTNV-9" value="Non" style="edgeStyle=orthogonalEdgeStyle;rounded=0;html=1;jettySize=auto;orthogonalLoop=1;fontSize=11;endArrow=classic;endFill=1;endSize=8;strokeWidth=1;shadow=0;labelBackgroundColor=none;exitX=0;exitY=0.5;exitDx=0;exitDy=0;entryX=0.5;entryY=0;entryDx=0;entryDy=0;" parent="WIyWlLk6GJQsqaUBKTNV-1" source="WIyWlLk6GJQsqaUBKTNV-10" target="WIyWlLk6GJQsqaUBKTNV-12" edge="1">
          <mxGeometry x="-0.0909" y="-20" relative="1" as="geometry">
            <mxPoint x="1" as="offset" />
            <mxPoint x="160" y="672" as="sourcePoint" />
            <mxPoint x="50" y="672" as="targetPoint" />
          </mxGeometry>
        </mxCell>
        <mxCell id="xqbwnd2MoyKOv1-UZQDI-10" style="edgeStyle=orthogonalEdgeStyle;rounded=0;orthogonalLoop=1;jettySize=auto;html=1;entryX=0;entryY=0.5;entryDx=0;entryDy=0;endArrow=classic;endFill=0;exitX=0.5;exitY=1;exitDx=0;exitDy=0;" edge="1" parent="WIyWlLk6GJQsqaUBKTNV-1" source="WIyWlLk6GJQsqaUBKTNV-10" target="1BZSETJdIj5R0xjEfyC4-0">
          <mxGeometry relative="1" as="geometry" />
        </mxCell>
        <mxCell id="xqbwnd2MoyKOv1-UZQDI-11" value="Oui" style="edgeLabel;html=1;align=center;verticalAlign=middle;resizable=0;points=[];" vertex="1" connectable="0" parent="xqbwnd2MoyKOv1-UZQDI-10">
          <mxGeometry x="0.3134" y="-4" relative="1" as="geometry">
            <mxPoint x="-35" y="-14" as="offset" />
          </mxGeometry>
        </mxCell>
        <mxCell id="WIyWlLk6GJQsqaUBKTNV-10" value="Des recettes correspondent à la recherche" style="rhombus;whiteSpace=wrap;html=1;shadow=0;fontFamily=Helvetica;fontSize=12;align=center;strokeWidth=1;spacing=6;spacingTop=-4;fillColor=#d5e8d4;strokeColor=#82b366;" parent="WIyWlLk6GJQsqaUBKTNV-1" vertex="1">
          <mxGeometry x="160" y="600" width="125" height="100" as="geometry" />
        </mxCell>
        <mxCell id="WIyWlLk6GJQsqaUBKTNV-12" value="Affichage du texte &quot;Aucune recherche ne correspond à votre recherche&quot; à la place des recettes" style="rounded=1;whiteSpace=wrap;html=1;fontSize=12;glass=0;strokeWidth=1;shadow=0;fillColor=#ffe6cc;strokeColor=#d79b00;" parent="WIyWlLk6GJQsqaUBKTNV-1" vertex="1">
          <mxGeometry x="30" y="690" width="120" height="90" as="geometry" />
        </mxCell>
        <mxCell id="xqbwnd2MoyKOv1-UZQDI-12" value="Non" style="edgeStyle=orthogonalEdgeStyle;rounded=0;orthogonalLoop=1;jettySize=auto;html=1;entryX=0.5;entryY=0;entryDx=0;entryDy=0;endArrow=classic;endFill=0;" edge="1" parent="WIyWlLk6GJQsqaUBKTNV-1" source="1BZSETJdIj5R0xjEfyC4-0" target="1BZSETJdIj5R0xjEfyC4-15">
          <mxGeometry x="0.1429" y="21" relative="1" as="geometry">
            <mxPoint as="offset" />
          </mxGeometry>
        </mxCell>
        <mxCell id="xqbwnd2MoyKOv1-UZQDI-16" style="edgeStyle=orthogonalEdgeStyle;rounded=0;orthogonalLoop=1;jettySize=auto;html=1;entryX=0.5;entryY=0;entryDx=0;entryDy=0;endArrow=classic;endFill=1;" edge="1" parent="WIyWlLk6GJQsqaUBKTNV-1" source="1BZSETJdIj5R0xjEfyC4-0" target="xqbwnd2MoyKOv1-UZQDI-13">
          <mxGeometry relative="1" as="geometry">
            <Array as="points">
              <mxPoint x="709" y="790" />
              <mxPoint x="153" y="790" />
            </Array>
          </mxGeometry>
        </mxCell>
        <mxCell id="xqbwnd2MoyKOv1-UZQDI-17" value="Oui" style="edgeLabel;html=1;align=center;verticalAlign=middle;resizable=0;points=[];" vertex="1" connectable="0" parent="xqbwnd2MoyKOv1-UZQDI-16">
          <mxGeometry x="0.1882" y="2" relative="1" as="geometry">
            <mxPoint x="73" y="-12" as="offset" />
          </mxGeometry>
        </mxCell>
        <mxCell id="1BZSETJdIj5R0xjEfyC4-0" value="Il y a des tags sélectionnés" style="rhombus;whiteSpace=wrap;html=1;shadow=0;fontFamily=Helvetica;fontSize=12;align=center;strokeWidth=1;spacing=6;spacingTop=-4;fillColor=#d5e8d4;strokeColor=#82b366;" parent="WIyWlLk6GJQsqaUBKTNV-1" vertex="1">
          <mxGeometry x="646.5" y="670" width="125" height="100" as="geometry" />
        </mxCell>
        <mxCell id="1BZSETJdIj5R0xjEfyC4-15" value="Affichage des recettes" style="rounded=1;whiteSpace=wrap;html=1;fontSize=12;glass=0;strokeWidth=1;shadow=0;fillColor=#ffe6cc;strokeColor=#d79b00;" parent="WIyWlLk6GJQsqaUBKTNV-1" vertex="1">
          <mxGeometry x="649" y="860" width="120" height="60" as="geometry" />
        </mxCell>
        <mxCell id="1BZSETJdIj5R0xjEfyC4-16" value="L&#39;utilisateur commence avec une recherche textuelle" style="ellipse;whiteSpace=wrap;html=1;fillColor=#dae8fc;strokeColor=#6c8ebf;" parent="WIyWlLk6GJQsqaUBKTNV-1" vertex="1">
          <mxGeometry x="649" y="40" width="120" height="80" as="geometry" />
        </mxCell>
        <mxCell id="xqbwnd2MoyKOv1-UZQDI-3" style="edgeStyle=orthogonalEdgeStyle;rounded=0;orthogonalLoop=1;jettySize=auto;html=1;entryX=0.5;entryY=0;entryDx=0;entryDy=0;endArrow=none;endFill=0;shape=link;" edge="1" parent="WIyWlLk6GJQsqaUBKTNV-1" source="xqbwnd2MoyKOv1-UZQDI-1" target="xqbwnd2MoyKOv1-UZQDI-2">
          <mxGeometry relative="1" as="geometry" />
        </mxCell>
        <mxCell id="xqbwnd2MoyKOv1-UZQDI-1" value="Chercher dans le titre" style="rounded=0;whiteSpace=wrap;html=1;fillColor=#f5f5f5;fontColor=#333333;strokeColor=#666666;" vertex="1" parent="WIyWlLk6GJQsqaUBKTNV-1">
          <mxGeometry x="290.5" y="240" width="120" height="60" as="geometry" />
        </mxCell>
        <mxCell id="xqbwnd2MoyKOv1-UZQDI-5" style="edgeStyle=orthogonalEdgeStyle;rounded=0;orthogonalLoop=1;jettySize=auto;html=1;entryX=0.5;entryY=0;entryDx=0;entryDy=0;endArrow=none;endFill=0;shape=link;" edge="1" parent="WIyWlLk6GJQsqaUBKTNV-1" source="xqbwnd2MoyKOv1-UZQDI-2" target="xqbwnd2MoyKOv1-UZQDI-4">
          <mxGeometry relative="1" as="geometry" />
        </mxCell>
        <mxCell id="xqbwnd2MoyKOv1-UZQDI-2" value="Chercher dans la description" style="rounded=0;whiteSpace=wrap;html=1;fillColor=#f5f5f5;fontColor=#333333;strokeColor=#666666;" vertex="1" parent="WIyWlLk6GJQsqaUBKTNV-1">
          <mxGeometry x="290.5" y="350" width="120" height="60" as="geometry" />
        </mxCell>
        <mxCell id="xqbwnd2MoyKOv1-UZQDI-6" style="edgeStyle=orthogonalEdgeStyle;rounded=0;orthogonalLoop=1;jettySize=auto;html=1;entryX=1;entryY=0.5;entryDx=0;entryDy=0;exitX=0.5;exitY=1;exitDx=0;exitDy=0;" edge="1" parent="WIyWlLk6GJQsqaUBKTNV-1" source="xqbwnd2MoyKOv1-UZQDI-4" target="WIyWlLk6GJQsqaUBKTNV-10">
          <mxGeometry relative="1" as="geometry" />
        </mxCell>
        <mxCell id="xqbwnd2MoyKOv1-UZQDI-4" value="Chercher dans les ingrédients" style="rounded=0;whiteSpace=wrap;html=1;fillColor=#f5f5f5;fontColor=#333333;strokeColor=#666666;" vertex="1" parent="WIyWlLk6GJQsqaUBKTNV-1">
          <mxGeometry x="290.5" y="460" width="120" height="60" as="geometry" />
        </mxCell>
        <mxCell id="xqbwnd2MoyKOv1-UZQDI-7" value="" style="endArrow=classic;html=1;rounded=0;endFill=0;" edge="1" parent="WIyWlLk6GJQsqaUBKTNV-1">
          <mxGeometry width="50" height="50" relative="1" as="geometry">
            <mxPoint x="350" y="580" as="sourcePoint" />
            <mxPoint x="500" y="220" as="targetPoint" />
            <Array as="points">
              <mxPoint x="500" y="580" />
            </Array>
          </mxGeometry>
        </mxCell>
        <mxCell id="xqbwnd2MoyKOv1-UZQDI-8" value="Boucle&amp;nbsp;&lt;br&gt;sur l&#39;ensemble &lt;br&gt;des recettes" style="edgeLabel;html=1;align=center;verticalAlign=middle;resizable=0;points=[];" vertex="1" connectable="0" parent="xqbwnd2MoyKOv1-UZQDI-7">
          <mxGeometry x="0.1455" y="3" relative="1" as="geometry">
            <mxPoint x="3" y="-51" as="offset" />
          </mxGeometry>
        </mxCell>
        <mxCell id="xqbwnd2MoyKOv1-UZQDI-18" value="Non" style="edgeStyle=orthogonalEdgeStyle;rounded=0;orthogonalLoop=1;jettySize=auto;html=1;entryX=0;entryY=0.5;entryDx=0;entryDy=0;endArrow=classic;endFill=0;" edge="1" parent="WIyWlLk6GJQsqaUBKTNV-1" source="xqbwnd2MoyKOv1-UZQDI-13" target="xqbwnd2MoyKOv1-UZQDI-14">
          <mxGeometry x="-0.1803" y="10" relative="1" as="geometry">
            <mxPoint as="offset" />
          </mxGeometry>
        </mxCell>
        <mxCell id="xqbwnd2MoyKOv1-UZQDI-24" value="Oui" style="edgeStyle=orthogonalEdgeStyle;rounded=0;orthogonalLoop=1;jettySize=auto;html=1;startArrow=none;startFill=0;endArrow=classic;endFill=1;exitX=0.5;exitY=1;exitDx=0;exitDy=0;entryX=0.5;entryY=0;entryDx=0;entryDy=0;" edge="1" parent="WIyWlLk6GJQsqaUBKTNV-1">
          <mxGeometry x="-0.5" y="18" relative="1" as="geometry">
            <mxPoint x="152.5" y="940" as="sourcePoint" />
            <mxPoint x="152.5" y="980" as="targetPoint" />
            <mxPoint as="offset" />
          </mxGeometry>
        </mxCell>
        <mxCell id="xqbwnd2MoyKOv1-UZQDI-13" value="Il y a des&lt;br&gt;ingrédients sélectionnés ?" style="rhombus;whiteSpace=wrap;html=1;shadow=0;fontFamily=Helvetica;fontSize=12;align=center;strokeWidth=1;spacing=6;spacingTop=-4;fillColor=#d5e8d4;strokeColor=#82b366;" vertex="1" parent="WIyWlLk6GJQsqaUBKTNV-1">
          <mxGeometry x="90" y="840" width="125" height="100" as="geometry" />
        </mxCell>
        <mxCell id="xqbwnd2MoyKOv1-UZQDI-19" style="edgeStyle=orthogonalEdgeStyle;rounded=0;orthogonalLoop=1;jettySize=auto;html=1;entryX=0;entryY=0.5;entryDx=0;entryDy=0;endArrow=classic;endFill=0;" edge="1" parent="WIyWlLk6GJQsqaUBKTNV-1" source="xqbwnd2MoyKOv1-UZQDI-14" target="xqbwnd2MoyKOv1-UZQDI-15">
          <mxGeometry relative="1" as="geometry" />
        </mxCell>
        <mxCell id="xqbwnd2MoyKOv1-UZQDI-27" style="edgeStyle=orthogonalEdgeStyle;rounded=0;orthogonalLoop=1;jettySize=auto;html=1;entryX=0.5;entryY=0;entryDx=0;entryDy=0;startArrow=none;startFill=0;endArrow=classic;endFill=1;" edge="1" parent="WIyWlLk6GJQsqaUBKTNV-1" source="xqbwnd2MoyKOv1-UZQDI-14" target="xqbwnd2MoyKOv1-UZQDI-26">
          <mxGeometry relative="1" as="geometry" />
        </mxCell>
        <mxCell id="xqbwnd2MoyKOv1-UZQDI-36" value="Oui" style="edgeLabel;html=1;align=center;verticalAlign=middle;resizable=0;points=[];" vertex="1" connectable="0" parent="xqbwnd2MoyKOv1-UZQDI-27">
          <mxGeometry x="-0.3333" y="1" relative="1" as="geometry">
            <mxPoint x="17" as="offset" />
          </mxGeometry>
        </mxCell>
        <mxCell id="xqbwnd2MoyKOv1-UZQDI-14" value="Il y a des&lt;br&gt;appareils&lt;br&gt;sélectionnés ?" style="rhombus;whiteSpace=wrap;html=1;shadow=0;fontFamily=Helvetica;fontSize=12;align=center;strokeWidth=1;spacing=6;spacingTop=-4;fillColor=#d5e8d4;strokeColor=#82b366;" vertex="1" parent="WIyWlLk6GJQsqaUBKTNV-1">
          <mxGeometry x="276" y="840" width="125" height="100" as="geometry" />
        </mxCell>
        <mxCell id="xqbwnd2MoyKOv1-UZQDI-20" value="Non" style="edgeStyle=orthogonalEdgeStyle;rounded=0;orthogonalLoop=1;jettySize=auto;html=1;entryX=0;entryY=0.5;entryDx=0;entryDy=0;endArrow=classic;endFill=1;" edge="1" parent="WIyWlLk6GJQsqaUBKTNV-1" target="1BZSETJdIj5R0xjEfyC4-15">
          <mxGeometry x="0.0794" y="10" relative="1" as="geometry">
            <mxPoint x="579" y="890" as="sourcePoint" />
            <mxPoint x="642" y="890" as="targetPoint" />
            <mxPoint as="offset" />
          </mxGeometry>
        </mxCell>
        <mxCell id="xqbwnd2MoyKOv1-UZQDI-21" value="Non" style="edgeStyle=orthogonalEdgeStyle;rounded=0;orthogonalLoop=1;jettySize=auto;html=1;endArrow=none;endFill=0;startArrow=classic;startFill=1;" edge="1" parent="WIyWlLk6GJQsqaUBKTNV-1" source="xqbwnd2MoyKOv1-UZQDI-15" target="xqbwnd2MoyKOv1-UZQDI-14">
          <mxGeometry x="0.0333" y="-10" relative="1" as="geometry">
            <mxPoint as="offset" />
          </mxGeometry>
        </mxCell>
        <mxCell id="xqbwnd2MoyKOv1-UZQDI-30" style="edgeStyle=orthogonalEdgeStyle;rounded=0;orthogonalLoop=1;jettySize=auto;html=1;entryX=0.5;entryY=0;entryDx=0;entryDy=0;startArrow=none;startFill=0;endArrow=classic;endFill=1;" edge="1" parent="WIyWlLk6GJQsqaUBKTNV-1" source="xqbwnd2MoyKOv1-UZQDI-15" target="xqbwnd2MoyKOv1-UZQDI-29">
          <mxGeometry relative="1" as="geometry" />
        </mxCell>
        <mxCell id="xqbwnd2MoyKOv1-UZQDI-35" value="Oui" style="edgeLabel;html=1;align=center;verticalAlign=middle;resizable=0;points=[];" vertex="1" connectable="0" parent="xqbwnd2MoyKOv1-UZQDI-30">
          <mxGeometry x="0.1528" relative="1" as="geometry">
            <mxPoint x="17" y="-9" as="offset" />
          </mxGeometry>
        </mxCell>
        <mxCell id="xqbwnd2MoyKOv1-UZQDI-15" value="Il y a des&lt;br&gt;ustensiles&lt;br&gt;sélectionnés ?" style="rhombus;whiteSpace=wrap;html=1;shadow=0;fontFamily=Helvetica;fontSize=12;align=center;strokeWidth=1;spacing=6;spacingTop=-4;fillColor=#d5e8d4;strokeColor=#82b366;" vertex="1" parent="WIyWlLk6GJQsqaUBKTNV-1">
          <mxGeometry x="461" y="840" width="125" height="100" as="geometry" />
        </mxCell>
        <mxCell id="xqbwnd2MoyKOv1-UZQDI-25" style="edgeStyle=orthogonalEdgeStyle;rounded=0;orthogonalLoop=1;jettySize=auto;html=1;entryX=0;entryY=0.5;entryDx=0;entryDy=0;startArrow=none;startFill=0;endArrow=classic;endFill=1;" edge="1" parent="WIyWlLk6GJQsqaUBKTNV-1" source="xqbwnd2MoyKOv1-UZQDI-23" target="xqbwnd2MoyKOv1-UZQDI-14">
          <mxGeometry relative="1" as="geometry" />
        </mxCell>
        <mxCell id="xqbwnd2MoyKOv1-UZQDI-23" value="Recherche des recettes avec les ingrédients sélectionnés" style="rounded=1;whiteSpace=wrap;html=1;fontSize=12;glass=0;strokeWidth=1;shadow=0;fillColor=#ffe6cc;strokeColor=#d79b00;" vertex="1" parent="WIyWlLk6GJQsqaUBKTNV-1">
          <mxGeometry x="78.75" y="980" width="147.5" height="60" as="geometry" />
        </mxCell>
        <mxCell id="xqbwnd2MoyKOv1-UZQDI-28" style="edgeStyle=orthogonalEdgeStyle;rounded=0;orthogonalLoop=1;jettySize=auto;html=1;entryX=0;entryY=0.5;entryDx=0;entryDy=0;startArrow=none;startFill=0;endArrow=classic;endFill=1;" edge="1" parent="WIyWlLk6GJQsqaUBKTNV-1" source="xqbwnd2MoyKOv1-UZQDI-26" target="xqbwnd2MoyKOv1-UZQDI-15">
          <mxGeometry relative="1" as="geometry" />
        </mxCell>
        <mxCell id="xqbwnd2MoyKOv1-UZQDI-26" value="Recherche des recettes avec les appareils sélectionnés" style="rounded=1;whiteSpace=wrap;html=1;fontSize=12;glass=0;strokeWidth=1;shadow=0;fillColor=#ffe6cc;strokeColor=#d79b00;" vertex="1" parent="WIyWlLk6GJQsqaUBKTNV-1">
          <mxGeometry x="264.75" y="980" width="147.5" height="60" as="geometry" />
        </mxCell>
        <mxCell id="xqbwnd2MoyKOv1-UZQDI-33" style="edgeStyle=orthogonalEdgeStyle;rounded=0;orthogonalLoop=1;jettySize=auto;html=1;entryX=0;entryY=0.5;entryDx=0;entryDy=0;startArrow=none;startFill=0;endArrow=classic;endFill=1;" edge="1" parent="WIyWlLk6GJQsqaUBKTNV-1" source="xqbwnd2MoyKOv1-UZQDI-29" target="1BZSETJdIj5R0xjEfyC4-15">
          <mxGeometry relative="1" as="geometry" />
        </mxCell>
        <mxCell id="xqbwnd2MoyKOv1-UZQDI-29" value="Recherche des recettes avec les appareils sélectionnés" style="rounded=1;whiteSpace=wrap;html=1;fontSize=12;glass=0;strokeWidth=1;shadow=0;fillColor=#ffe6cc;strokeColor=#d79b00;" vertex="1" parent="WIyWlLk6GJQsqaUBKTNV-1">
          <mxGeometry x="449.75" y="980" width="147.5" height="60" as="geometry" />
        </mxCell>
        <mxCell id="xqbwnd2MoyKOv1-UZQDI-54" style="edgeStyle=orthogonalEdgeStyle;rounded=0;orthogonalLoop=1;jettySize=auto;html=1;entryX=0;entryY=0.5;entryDx=0;entryDy=0;startArrow=none;startFill=0;endArrow=classic;endFill=1;exitX=0.25;exitY=1;exitDx=0;exitDy=0;" edge="1" parent="WIyWlLk6GJQsqaUBKTNV-1" source="xqbwnd2MoyKOv1-UZQDI-37" target="xqbwnd2MoyKOv1-UZQDI-39">
          <mxGeometry relative="1" as="geometry" />
        </mxCell>
        <mxCell id="xqbwnd2MoyKOv1-UZQDI-37" value="Recettes" style="rounded=0;whiteSpace=wrap;html=1;fillColor=#f5f5f5;fontColor=#333333;strokeColor=#666666;" vertex="1" parent="WIyWlLk6GJQsqaUBKTNV-1">
          <mxGeometry x="90" y="1240" width="120" height="40" as="geometry" />
        </mxCell>
        <mxCell id="xqbwnd2MoyKOv1-UZQDI-38" value="Boucle native" style="text;strokeColor=none;fillColor=none;html=1;fontSize=24;fontStyle=1;verticalAlign=middle;align=center;flipH=1;flipV=1;" vertex="1" parent="WIyWlLk6GJQsqaUBKTNV-1">
          <mxGeometry x="324" y="1200" width="180" height="40" as="geometry" />
        </mxCell>
        <mxCell id="xqbwnd2MoyKOv1-UZQDI-43" value="Non" style="edgeStyle=orthogonalEdgeStyle;rounded=0;orthogonalLoop=1;jettySize=auto;html=1;entryX=0;entryY=0.5;entryDx=0;entryDy=0;startArrow=none;startFill=0;endArrow=classic;endFill=1;" edge="1" parent="WIyWlLk6GJQsqaUBKTNV-1" source="xqbwnd2MoyKOv1-UZQDI-39" target="xqbwnd2MoyKOv1-UZQDI-41">
          <mxGeometry y="10" relative="1" as="geometry">
            <mxPoint as="offset" />
          </mxGeometry>
        </mxCell>
        <mxCell id="xqbwnd2MoyKOv1-UZQDI-47" value="Oui" style="edgeStyle=orthogonalEdgeStyle;rounded=0;orthogonalLoop=1;jettySize=auto;html=1;entryX=0;entryY=0.5;entryDx=0;entryDy=0;startArrow=none;startFill=0;endArrow=classic;endFill=1;exitX=0.5;exitY=1;exitDx=0;exitDy=0;" edge="1" parent="WIyWlLk6GJQsqaUBKTNV-1" source="xqbwnd2MoyKOv1-UZQDI-39" target="xqbwnd2MoyKOv1-UZQDI-45">
          <mxGeometry x="0.3992" y="15" relative="1" as="geometry">
            <mxPoint as="offset" />
          </mxGeometry>
        </mxCell>
        <mxCell id="xqbwnd2MoyKOv1-UZQDI-39" value="Correspondance dans le titre" style="rounded=1;whiteSpace=wrap;html=1;fontSize=12;glass=0;strokeWidth=1;shadow=0;fillColor=#ffe6cc;strokeColor=#d79b00;" vertex="1" parent="WIyWlLk6GJQsqaUBKTNV-1">
          <mxGeometry x="170.5" y="1330" width="100" height="60" as="geometry" />
        </mxCell>
        <mxCell id="xqbwnd2MoyKOv1-UZQDI-44" value="Non" style="edgeStyle=orthogonalEdgeStyle;rounded=0;orthogonalLoop=1;jettySize=auto;html=1;entryX=0;entryY=0.5;entryDx=0;entryDy=0;startArrow=none;startFill=0;endArrow=classic;endFill=1;" edge="1" parent="WIyWlLk6GJQsqaUBKTNV-1" source="xqbwnd2MoyKOv1-UZQDI-41" target="xqbwnd2MoyKOv1-UZQDI-42">
          <mxGeometry x="-0.0417" y="10" relative="1" as="geometry">
            <mxPoint as="offset" />
          </mxGeometry>
        </mxCell>
        <mxCell id="xqbwnd2MoyKOv1-UZQDI-48" value="Oui" style="edgeStyle=orthogonalEdgeStyle;rounded=0;orthogonalLoop=1;jettySize=auto;html=1;entryX=0.5;entryY=0;entryDx=0;entryDy=0;startArrow=none;startFill=0;endArrow=classic;endFill=1;" edge="1" parent="WIyWlLk6GJQsqaUBKTNV-1" source="xqbwnd2MoyKOv1-UZQDI-41" target="xqbwnd2MoyKOv1-UZQDI-45">
          <mxGeometry relative="1" as="geometry" />
        </mxCell>
        <mxCell id="xqbwnd2MoyKOv1-UZQDI-41" value="Correspondance dans la description" style="rounded=1;whiteSpace=wrap;html=1;fontSize=12;glass=0;strokeWidth=1;shadow=0;fillColor=#ffe6cc;strokeColor=#d79b00;" vertex="1" parent="WIyWlLk6GJQsqaUBKTNV-1">
          <mxGeometry x="369.5" y="1330" width="100" height="60" as="geometry" />
        </mxCell>
        <mxCell id="xqbwnd2MoyKOv1-UZQDI-49" style="edgeStyle=orthogonalEdgeStyle;rounded=0;orthogonalLoop=1;jettySize=auto;html=1;entryX=1;entryY=0.5;entryDx=0;entryDy=0;startArrow=none;startFill=0;endArrow=classic;endFill=1;exitX=0.5;exitY=1;exitDx=0;exitDy=0;" edge="1" parent="WIyWlLk6GJQsqaUBKTNV-1" source="xqbwnd2MoyKOv1-UZQDI-42" target="xqbwnd2MoyKOv1-UZQDI-45">
          <mxGeometry relative="1" as="geometry" />
        </mxCell>
        <mxCell id="xqbwnd2MoyKOv1-UZQDI-50" value="Oui" style="edgeLabel;html=1;align=center;verticalAlign=middle;resizable=0;points=[];" vertex="1" connectable="0" parent="xqbwnd2MoyKOv1-UZQDI-49">
          <mxGeometry x="0.1571" relative="1" as="geometry">
            <mxPoint x="-17" y="-15" as="offset" />
          </mxGeometry>
        </mxCell>
        <mxCell id="xqbwnd2MoyKOv1-UZQDI-42" value="Correspondance dans les ingrédients" style="rounded=1;whiteSpace=wrap;html=1;fontSize=12;glass=0;strokeWidth=1;shadow=0;fillColor=#ffe6cc;strokeColor=#d79b00;" vertex="1" parent="WIyWlLk6GJQsqaUBKTNV-1">
          <mxGeometry x="563.5" y="1330" width="100" height="60" as="geometry" />
        </mxCell>
        <mxCell id="xqbwnd2MoyKOv1-UZQDI-53" style="edgeStyle=orthogonalEdgeStyle;rounded=0;orthogonalLoop=1;jettySize=auto;html=1;entryX=0.5;entryY=0;entryDx=0;entryDy=0;startArrow=none;startFill=0;endArrow=classic;endFill=1;" edge="1" parent="WIyWlLk6GJQsqaUBKTNV-1" source="xqbwnd2MoyKOv1-UZQDI-45" target="xqbwnd2MoyKOv1-UZQDI-46">
          <mxGeometry relative="1" as="geometry" />
        </mxCell>
        <mxCell id="xqbwnd2MoyKOv1-UZQDI-45" value="Push des résultats dans le tableau des résultats" style="rounded=1;whiteSpace=wrap;html=1;fontSize=12;glass=0;strokeWidth=1;shadow=0;fillColor=#ffe6cc;strokeColor=#d79b00;" vertex="1" parent="WIyWlLk6GJQsqaUBKTNV-1">
          <mxGeometry x="369.5" y="1435" width="100" height="60" as="geometry" />
        </mxCell>
        <mxCell id="xqbwnd2MoyKOv1-UZQDI-46" value="Retourner le tableau des résultats" style="rounded=1;whiteSpace=wrap;html=1;fontSize=12;glass=0;strokeWidth=1;shadow=0;fillColor=#ffe6cc;strokeColor=#d79b00;" vertex="1" parent="WIyWlLk6GJQsqaUBKTNV-1">
          <mxGeometry x="369.5" y="1580" width="100" height="60" as="geometry" />
        </mxCell>
        <mxCell id="xqbwnd2MoyKOv1-UZQDI-51" value="" style="endArrow=classic;html=1;rounded=0;endFill=0;" edge="1" parent="WIyWlLk6GJQsqaUBKTNV-1">
          <mxGeometry width="50" height="50" relative="1" as="geometry">
            <mxPoint x="417.5" y="1530" as="sourcePoint" />
            <mxPoint x="137.5" y="1360" as="targetPoint" />
            <Array as="points">
              <mxPoint x="137.5" y="1530" />
            </Array>
          </mxGeometry>
        </mxCell>
        <mxCell id="xqbwnd2MoyKOv1-UZQDI-52" value="Boucle&amp;nbsp;&lt;br&gt;sur l&#39;ensemble &lt;br&gt;des recettes" style="edgeLabel;html=1;align=center;verticalAlign=middle;resizable=0;points=[];" vertex="1" connectable="0" parent="xqbwnd2MoyKOv1-UZQDI-51">
          <mxGeometry x="0.1455" y="3" relative="1" as="geometry">
            <mxPoint x="-18" y="-51" as="offset" />
          </mxGeometry>
        </mxCell>
        <mxCell id="xqbwnd2MoyKOv1-UZQDI-58" style="edgeStyle=orthogonalEdgeStyle;rounded=0;orthogonalLoop=1;jettySize=auto;html=1;entryX=0;entryY=0.5;entryDx=0;entryDy=0;startArrow=none;startFill=0;endArrow=classic;endFill=1;exitX=0.25;exitY=1;exitDx=0;exitDy=0;" edge="1" parent="WIyWlLk6GJQsqaUBKTNV-1" source="xqbwnd2MoyKOv1-UZQDI-59" target="xqbwnd2MoyKOv1-UZQDI-63">
          <mxGeometry relative="1" as="geometry" />
        </mxCell>
        <mxCell id="xqbwnd2MoyKOv1-UZQDI-59" value="Recettes" style="rounded=0;whiteSpace=wrap;html=1;fillColor=#f5f5f5;fontColor=#333333;strokeColor=#666666;" vertex="1" parent="WIyWlLk6GJQsqaUBKTNV-1">
          <mxGeometry x="90" y="1720" width="120" height="40" as="geometry" />
        </mxCell>
        <mxCell id="xqbwnd2MoyKOv1-UZQDI-60" value="Boucle Fonctionnelle" style="text;strokeColor=none;fillColor=none;html=1;fontSize=24;fontStyle=1;verticalAlign=middle;align=center;flipH=1;flipV=1;" vertex="1" parent="WIyWlLk6GJQsqaUBKTNV-1">
          <mxGeometry x="268" y="1680" width="292" height="40" as="geometry" />
        </mxCell>
        <mxCell id="xqbwnd2MoyKOv1-UZQDI-61" value="Non" style="edgeStyle=orthogonalEdgeStyle;rounded=0;orthogonalLoop=1;jettySize=auto;html=1;entryX=0;entryY=0.5;entryDx=0;entryDy=0;startArrow=none;startFill=0;endArrow=classic;endFill=1;" edge="1" parent="WIyWlLk6GJQsqaUBKTNV-1" source="xqbwnd2MoyKOv1-UZQDI-63" target="xqbwnd2MoyKOv1-UZQDI-66">
          <mxGeometry y="10" relative="1" as="geometry">
            <mxPoint as="offset" />
          </mxGeometry>
        </mxCell>
        <mxCell id="xqbwnd2MoyKOv1-UZQDI-62" value="Oui" style="edgeStyle=orthogonalEdgeStyle;rounded=0;orthogonalLoop=1;jettySize=auto;html=1;startArrow=none;startFill=0;endArrow=classic;endFill=1;exitX=0.5;exitY=1;exitDx=0;exitDy=0;" edge="1" parent="WIyWlLk6GJQsqaUBKTNV-1" source="xqbwnd2MoyKOv1-UZQDI-63">
          <mxGeometry x="0.3992" y="15" relative="1" as="geometry">
            <mxPoint as="offset" />
            <mxPoint x="420" y="1960" as="targetPoint" />
            <Array as="points">
              <mxPoint x="221" y="1960" />
            </Array>
          </mxGeometry>
        </mxCell>
        <mxCell id="xqbwnd2MoyKOv1-UZQDI-63" value="Correspondance dans le titre" style="rounded=1;whiteSpace=wrap;html=1;fontSize=12;glass=0;strokeWidth=1;shadow=0;fillColor=#ffe6cc;strokeColor=#d79b00;" vertex="1" parent="WIyWlLk6GJQsqaUBKTNV-1">
          <mxGeometry x="170.5" y="1810" width="100" height="60" as="geometry" />
        </mxCell>
        <mxCell id="xqbwnd2MoyKOv1-UZQDI-64" value="Non" style="edgeStyle=orthogonalEdgeStyle;rounded=0;orthogonalLoop=1;jettySize=auto;html=1;entryX=0;entryY=0.5;entryDx=0;entryDy=0;startArrow=none;startFill=0;endArrow=classic;endFill=1;" edge="1" parent="WIyWlLk6GJQsqaUBKTNV-1" source="xqbwnd2MoyKOv1-UZQDI-66" target="xqbwnd2MoyKOv1-UZQDI-69">
          <mxGeometry x="-0.0417" y="10" relative="1" as="geometry">
            <mxPoint as="offset" />
          </mxGeometry>
        </mxCell>
        <mxCell id="xqbwnd2MoyKOv1-UZQDI-65" value="Oui" style="edgeStyle=orthogonalEdgeStyle;rounded=0;orthogonalLoop=1;jettySize=auto;html=1;startArrow=none;startFill=0;endArrow=classic;endFill=1;entryX=0.5;entryY=0;entryDx=0;entryDy=0;" edge="1" parent="WIyWlLk6GJQsqaUBKTNV-1" source="xqbwnd2MoyKOv1-UZQDI-66" target="xqbwnd2MoyKOv1-UZQDI-72">
          <mxGeometry x="-0.6842" y="13" relative="1" as="geometry">
            <mxPoint x="418" y="1980" as="targetPoint" />
            <mxPoint as="offset" />
          </mxGeometry>
        </mxCell>
        <mxCell id="xqbwnd2MoyKOv1-UZQDI-66" value="Correspondance dans la description" style="rounded=1;whiteSpace=wrap;html=1;fontSize=12;glass=0;strokeWidth=1;shadow=0;fillColor=#ffe6cc;strokeColor=#d79b00;" vertex="1" parent="WIyWlLk6GJQsqaUBKTNV-1">
          <mxGeometry x="369.5" y="1810" width="100" height="60" as="geometry" />
        </mxCell>
        <mxCell id="xqbwnd2MoyKOv1-UZQDI-67" style="edgeStyle=orthogonalEdgeStyle;rounded=0;orthogonalLoop=1;jettySize=auto;html=1;startArrow=none;startFill=0;endArrow=classic;endFill=1;exitX=0.5;exitY=1;exitDx=0;exitDy=0;" edge="1" parent="WIyWlLk6GJQsqaUBKTNV-1" source="xqbwnd2MoyKOv1-UZQDI-69">
          <mxGeometry relative="1" as="geometry">
            <mxPoint x="420" y="1960" as="targetPoint" />
            <Array as="points">
              <mxPoint x="614" y="1960" />
            </Array>
          </mxGeometry>
        </mxCell>
        <mxCell id="xqbwnd2MoyKOv1-UZQDI-68" value="Oui" style="edgeLabel;html=1;align=center;verticalAlign=middle;resizable=0;points=[];" vertex="1" connectable="0" parent="xqbwnd2MoyKOv1-UZQDI-67">
          <mxGeometry x="0.1571" relative="1" as="geometry">
            <mxPoint x="-17" y="-15" as="offset" />
          </mxGeometry>
        </mxCell>
        <mxCell id="xqbwnd2MoyKOv1-UZQDI-69" value="Correspondance dans les ingrédients" style="rounded=1;whiteSpace=wrap;html=1;fontSize=12;glass=0;strokeWidth=1;shadow=0;fillColor=#ffe6cc;strokeColor=#d79b00;" vertex="1" parent="WIyWlLk6GJQsqaUBKTNV-1">
          <mxGeometry x="563.5" y="1810" width="100" height="60" as="geometry" />
        </mxCell>
        <mxCell id="xqbwnd2MoyKOv1-UZQDI-72" value="Retourner le tableau des résultats" style="rounded=1;whiteSpace=wrap;html=1;fontSize=12;glass=0;strokeWidth=1;shadow=0;fillColor=#ffe6cc;strokeColor=#d79b00;" vertex="1" parent="WIyWlLk6GJQsqaUBKTNV-1">
          <mxGeometry x="369.5" y="2060" width="100" height="60" as="geometry" />
        </mxCell>
        <mxCell id="xqbwnd2MoyKOv1-UZQDI-73" value="" style="endArrow=classic;html=1;rounded=0;endFill=0;" edge="1" parent="WIyWlLk6GJQsqaUBKTNV-1">
          <mxGeometry width="50" height="50" relative="1" as="geometry">
            <mxPoint x="417.5" y="2010" as="sourcePoint" />
            <mxPoint x="137.5" y="1840" as="targetPoint" />
            <Array as="points">
              <mxPoint x="137.5" y="2010" />
            </Array>
          </mxGeometry>
        </mxCell>
        <mxCell id="xqbwnd2MoyKOv1-UZQDI-74" value="Boucle&amp;nbsp;&lt;br&gt;sur l&#39;ensemble &lt;br&gt;des recettes" style="edgeLabel;html=1;align=center;verticalAlign=middle;resizable=0;points=[];" vertex="1" connectable="0" parent="xqbwnd2MoyKOv1-UZQDI-73">
          <mxGeometry x="0.1455" y="3" relative="1" as="geometry">
            <mxPoint x="-18" y="-51" as="offset" />
          </mxGeometry>
        </mxCell>
      </root>
    </mxGraphModel>
  </diagram>
</mxfile>
